<svg width="32" height="32" viewBox="0 0 32 32" fill="none" xmlns="http://www.w3.org/2000/svg">
<g clip-path="url(#clip0_49_767)">
<path d="M18.2029 15.6637C17.3608 14.6111 15.7292 14.3479 14.6766 15.0584C14.5187 14.9532 14.3608 14.8742 14.2029 14.8216C13.5187 14.5584 12.7029 14.6111 12.0187 14.9795C11.6766 15.1637 11.3871 15.4005 11.1503 15.6637C10.2029 16.8216 10.1503 18.5058 10.545 19.6374C10.8345 20.4795 11.4397 21.1374 11.9134 21.5584L13.3082 20.2689L13.2555 20.2163C12.9397 19.9268 12.4924 19.4795 12.3345 19.0058C12.0713 18.2689 12.2029 17.3216 12.6239 16.8216C12.6766 16.7426 12.7818 16.6637 12.8871 16.6111C13.5187 16.2953 14.2029 16.7426 14.4924 17.3216C14.545 17.4005 14.545 17.4795 14.5976 17.5321C14.6766 17.6637 14.8082 17.5321 14.8345 17.4532C15.1766 16.6374 16.3608 16.0584 16.9397 16.9795C17.2818 17.5584 17.2555 18.3742 17.045 18.9795C16.8871 19.4532 16.4397 19.9005 16.1239 20.19C16.0713 20.2426 16.0187 20.2953 15.9397 20.3479L17.3345 21.6374C17.3345 21.6374 17.3871 21.6111 17.3871 21.5847C17.8608 21.1637 18.5187 20.4795 18.8082 19.5847C19.1766 18.4532 19.1503 16.7689 18.2029 15.6111V15.6637Z" fill="#5CC37E"/>
<path d="M14.5615 21.667L13.3706 22.8579L14.5615 24.0488L15.7524 22.8579L14.5615 21.667Z" fill="#0E6735"/>
<path d="M21.5979 14.8741L20.1768 16.2426C20.44 16.8741 20.6242 17.5057 20.6505 18.1636C20.7031 18.7952 20.6505 19.4268 20.44 20.032C20.1242 21.032 19.44 21.9794 18.2821 23.111L17.5715 23.7952C16.6242 24.7162 15.6242 25.6636 14.6768 26.6373C13.8084 25.7689 12.94 24.9268 12.0715 24.0847L10.7031 25.4005C11.8084 26.4531 12.9137 27.532 13.9926 28.6373L14.6505 29.2952L15.3084 28.6373C16.4663 27.4794 17.7031 26.2952 18.861 25.1636L19.5715 24.4794C20.5189 23.5584 21.7031 22.2952 22.2294 20.611C22.4926 19.7952 22.5979 18.9268 22.5452 18.032C22.4663 16.9531 22.1505 15.8741 21.5979 14.8741Z" fill="#0E6735"/>
<path d="M9.36072 24.1372L10.7291 22.8214C9.72914 21.8214 9.15019 20.953 8.88704 20.0582C8.43967 18.6635 8.65019 17.1108 9.46598 15.6635C10.387 14.0582 11.9134 12.874 13.5712 12.5056C13.9134 12.4266 14.2818 12.4003 14.6502 12.4003C15.0186 12.4003 15.0186 12.4003 15.2291 12.4266C16.4134 12.5582 17.5712 13.1108 18.5186 13.953C18.6765 14.1108 18.8344 14.2424 18.9923 14.4003C19.0712 14.4793 19.1502 14.5845 19.2291 14.6635L20.5976 13.3477C20.5449 13.2687 20.466 13.1898 20.387 13.1108C20.2028 12.9003 20.0186 12.7161 19.8081 12.5319C18.5712 11.4003 17.0186 10.6898 15.466 10.5056C14.7028 10.4266 13.9397 10.453 13.2028 10.6372C11.0449 11.1108 9.04493 12.6372 7.88704 14.6898C6.80809 16.5845 6.54493 18.6898 7.15019 20.6108C7.62388 22.0845 8.57125 23.2424 9.43967 24.1108L9.36072 24.1372Z" fill="#5CC37E"/>
<path d="M14.5714 3.76888C15.7556 3.76888 16.7029 4.74256 16.7029 5.90045C16.7029 7.05835 15.7292 8.03203 14.5714 8.03203C13.4135 8.03203 12.4398 7.05835 12.4398 5.90045C12.4398 4.74256 13.4135 3.76888 14.5714 3.76888ZM14.5714 2.05835C12.4398 2.05835 10.7292 3.76888 10.7292 5.90045C10.7292 8.03203 12.4398 9.74256 14.5714 9.74256C16.7029 9.74256 18.4135 8.03203 18.4135 5.90045C18.4135 3.76888 16.6766 2.05835 14.5714 2.05835Z" fill="#5CC37E"/>
</g>
<defs>
<clipPath id="clip0_49_767">
<rect width="20.2632" height="30" fill="white" transform="translate(6 1)"/>
</clipPath>
</defs>
</svg>
